<?xml version="1.0" encoding="utf-8"?>
<!-- Generator: Adobe Illustrator 24.0.1, SVG Export Plug-In . SVG Version: 6.00 Build 0)  -->
<svg version="1.1"
	 id="Layer_1" xmlns:cc="http://creativecommons.org/ns#" xmlns:dc="http://purl.org/dc/elements/1.1/" xmlns:inkscape="http://www.inkscape.org/namespaces/inkscape" xmlns:rdf="http://www.w3.org/1999/02/22-rdf-syntax-ns#" xmlns:sodipodi="http://sodipodi.sourceforge.net/DTD/sodipodi-0.dtd" xmlns:svg="http://www.w3.org/2000/svg"
	 xmlns="http://www.w3.org/2000/svg" xmlns:xlink="http://www.w3.org/1999/xlink" x="0px" y="0px" viewBox="0 0 83.8 57.3"
	 style="enable-background:new 0 0 83.8 57.3;" xml:space="preserve">
<style type="text/css">
	.st0{fill:#FFFFFF;}
</style>
<g transform="translate(0,-952.36218)">
	<path class="st0" d="M9.3,954.6c-0.8,0-1.6,0.2-2.2,0.4l33.5,29.8c1.2,1,2.5,1,3.6,0L77.6,955c-0.7-0.3-1.5-0.4-2.3-0.4
		C75.3,954.6,9.3,954.6,9.3,954.6z M3.4,959.7c0,0.3-0.1,0.6-0.1,0.8v40c0,0.8,0.2,1.6,0.5,2.3l23.1-22.2L3.4,959.7L3.4,959.7z
		 M81.3,959.7l-23.4,20.9l23.1,22.2c0.3-0.7,0.4-1.5,0.4-2.3v-40C81.3,960.3,81.3,960,81.3,959.7L81.3,959.7z M53.3,984.7l-5.2,4.6
		c-3.3,2.9-8.3,2.9-11.6,0l-5.2-4.6l-22.8,21.8c0.2,0,0.5,0,0.7,0h66c0.2,0,0.4,0,0.7,0C76,1006.6,53.3,984.7,53.3,984.7z"/>
</g>
</svg>
