<?xml version="1.0" encoding="utf-8"?>
<!-- Generator: Adobe Illustrator 21.1.0, SVG Export Plug-In . SVG Version: 6.00 Build 0)  -->
<svg version="1.1" id="Layer_1" xmlns="http://www.w3.org/2000/svg" xmlns:xlink="http://www.w3.org/1999/xlink" x="0px" y="0px"
	 viewBox="0 0 125 125" style="enable-background:new 0 0 125 125;" xml:space="preserve">
<path d="M48,113.2c0.1,2.1,0.1,4.3,0.3,6.4c0.1,1.8,0.9,3.7,3,3.7c2.4,0,2.5-2.2,2.5-4.1c0-2.1-0.1-4.2-0.5-6.3
	c-0.1-1.2-1.7-1.8-2.6-1.6c-1.3,0.4-1.7,1.6-1.6,2.6c0.3,2.2,0.4,4.6,0.3,6.8c0.4-0.7,0.7-1.3,1-1.8c-0.1,0-0.1,0.1-0.3,0.1
	c0.5-0.1,1-0.1,1.7-0.3c0.7,1,0.9,1.3,0.8,0.7c0-0.3,0-0.7,0-0.9c0-0.7,0-1.2-0.1-1.8c0-1.2-0.1-2.5-0.1-3.7
	C52.2,110.5,47.9,110.5,48,113.2L48,113.2z"/>
<path d="M63.3,113.2c0.1,2.1,0.1,4.3,0.3,6.4c0.1,1.8,0.9,3.7,3,3.7c2.4,0,2.5-2.2,2.5-4.1c0-2.1-0.1-4.2-0.5-6.3
	c-0.1-1.2-1.7-1.8-2.6-1.6c-1.3,0.4-1.7,1.6-1.6,2.6c0.3,2.2,0.4,4.6,0.3,6.8c0.4-0.7,0.7-1.3,1-1.8c-0.1,0-0.1,0.1-0.3,0.1
	c0.5-0.1,1-0.1,1.7-0.3c0.7,1,0.9,1.3,0.8,0.7c0-0.3,0-0.7,0-0.9c0-0.7,0-1.2-0.1-1.8c0-1.2-0.1-2.5-0.1-3.7
	C67.5,110.3,63.1,110.3,63.3,113.2L63.3,113.2z"/>
<path d="M77.2,76.6c1.4-6.7,6.2-9.1,12.1-11.3c4.2-1.6,8-3.7,11.3-6.7c7-6,11-14.3,12.2-23.4c-1.4,0-2.9,0-4.3,0
	c0.3,11.8,0.4,24-4.1,35.2C100,81.3,90.8,90,78.6,90.7c-2.8,0.1-2.8,4.5,0,4.3c12.2-0.7,22.3-8.3,27.8-18.9
	c6.4-12.6,6.6-26.9,6.2-40.7c-0.1-2.9-3.9-2.8-4.3,0c-1.3,10.2-7.6,19.4-16.8,24.1c-4.1,2.1-8.8,3-12.5,5.9c-3.3,2.5-5.4,6-6.2,10.1
	C72.4,78.2,76.6,79.4,77.2,76.6L77.2,76.6z"/>
<path d="M80.1,95.4c3.3-0.5,6.8-1.4,10.1-1.3c3.7,0.1,7.2,2,10.4,3.5c5.5,2.8,10.8,5.8,16.9,6.8c-0.1-1.3-0.4-2.6-0.5-3.9
	c-6.3,2.8-12.9,5.1-19.4,7.1c-6.3,1.8-15.1,4.5-19.6-2.1c-1.6-2.2-5.4-0.1-3.8,2.2c4.2,6.2,11.3,7.1,18.2,5.8
	c9.2-1.8,18.1-5.5,26.6-9.2c1.7-0.7,1.3-3.7-0.5-3.9C111,99.2,104.9,94.7,98,92c-6.7-2.8-12.3-1.6-19.4-0.5
	C76.1,91.6,77.3,95.8,80.1,95.4L80.1,95.4z"/>
<path d="M82.3,52.7c5-4.7,9.8-10,9.7-17.3c-1.4,0.1-2.9,0.4-4.2,0.5c1.7,4.5,4.9,7.6,7.2,11.7c3.4,5.8,1.3,10.1-4.5,12.6
	c-2.6,1-0.4,4.9,2.2,3.8c4.7-2,8.5-5.5,8.5-11c-0.1-7.2-6.8-11.8-9.3-18.1c-0.8-2.1-4.3-2-4.2,0.5c0.1,6.2-4.2,10.4-8.4,14.3
	C77.2,51.5,80.3,54.7,82.3,52.7L82.3,52.7z"/>
<path d="M36.5,28.2c-0.3-4.6-1.3-9.1-2.2-13.5c-0.3-1.3-1-3.7-0.4-5.1c1.7-3.3,4.7-0.9,6.2,0.3c2.9,2.1,5.4,4.6,7.5,7.5
	c1.7,2.2,5.4,0,3.8-2.2C47.9,10.6,38.7-0.4,32.2,4.7c-2.8,2.1-3.1,5.8-2.6,9.1c0.8,4.9,2.4,9.6,2.6,14.4
	C32.3,30.9,36.6,30.9,36.5,28.2L36.5,28.2z"/>
<path d="M81.6,29.1c0.3-4.7,1.4-9.3,2.4-13.9c0.7-3.1,1.4-8.4-1.4-10.8C76-1.1,65.8,10.9,62.6,15.2c-1.7,2.2,2.1,4.5,3.8,2.2
	c2.2-3,5.2-6.4,8.7-8.3c0.9-0.5,3.3-1.8,4.3-1.3c1.4,0.7,0.8,4.1,0.7,5.1c-0.8,5.5-2.5,10.6-2.8,16.3C77.2,31.9,81.5,31.9,81.6,29.1
	L81.6,29.1z"/>
<path d="M60.5,63.2c-1.6,2.1-3.3,4.2-4.9,6.3c-0.8,0.9-0.9,2.2,0,3c0.8,0.8,2.4,0.9,3,0c1.6-2.1,3.3-4.2,4.9-6.3
	c0.8-0.9,0.9-2.2,0-3C62.7,62.6,61.2,62.3,60.5,63.2L60.5,63.2z"/>
<path d="M41.3,83.3c10.9-0.4,21.7-0.8,32.5-1.2c2.8-0.1,2.8-4.5,0-4.3C63,78.2,52.2,78.6,41.3,79C38.5,79.1,38.5,83.4,41.3,83.3
	L41.3,83.3z"/>
<path d="M41.5,91.6c11.2-1.8,22.4-2.2,33.7-1.4c2.8,0.1,2.8-4.2,0-4.3C63.5,85,52,85.7,40.4,87.5C37.5,87.8,38.7,92,41.5,91.6
	L41.5,91.6z"/>
<path d="M60,89.7c0.3,1.7-0.9,3.1-0.3,4.9c0.5,1.3,1.6,2.1,2.9,2.5c1.7,0.4,3.5,0.3,5.2,0.3c2.6,0,5.1,0,7.7,0c1.3,0,2.1-1,2.2-2.2
	c0.1-2.2,0.4-4.5,0.5-6.7c0.3-2.8-4.1-2.8-4.3,0c-0.1,2.2-0.4,4.5-0.5,6.7c0.8-0.8,1.4-1.4,2.2-2.2c-3.1,0-6.2,0-9.3,0
	c-0.4,0-1.7,0.3-2.1,0c-0.7-0.4-0.1-0.1-0.1-1c0-1.2,0.3-2.1,0.1-3.3C63.7,85.8,59.5,87,60,89.7L60,89.7z"/>
<path d="M41.5,67.2c3.5,5.1,7.7,9.6,12.6,13.5c2.1,1.7,5.2-1.3,3-3c-4.6-3.7-8.7-7.9-11.9-12.6C43.6,62.7,39.8,64.9,41.5,67.2
	L41.5,67.2z"/>
<path d="M48.8,66c3,4.1,6.3,8,10.1,11.4c2.1,1.8,5.1-1.2,3-3c-3.5-3.1-6.6-6.7-9.4-10.6C50.9,61.6,47.1,63.7,48.8,66L48.8,66z"/>
<path d="M40.4,64.4c-0.9,6.4-1.6,12.9-2.1,19.3c-0.4,5.8-1.3,11.9-0.1,17.6c2.2,11.4,13.9,13.8,23.9,13.8c4.9,0,9.1-0.7,12.5-4.5
	c3.3-3.7,4.5-8.5,4.7-13.4C79.9,85,77,72.7,71.8,61.6c-1.2-2.5-5-0.3-3.8,2.2c4.1,8.7,6.4,18,6.8,27.6c0.1,4.6,0.4,9.8-2,14
	c-2.8,5-7.2,5.4-12.3,5.2c-4.5,0-9.1-0.4-12.9-2.8c-4.6-2.9-5.6-7.7-5.5-12.9c0.1-9.8,1.2-19.7,2.5-29.4
	C45,62.8,40.8,61.6,40.4,64.4L40.4,64.4z"/>
<path d="M67.9,65.6c-3.3,4.3-5.6,8.7-9.8,12.3c-2.1,1.8,0.9,4.9,3,3c4.5-3.8,7.1-8.5,10.5-13.1C73.2,65.5,69.4,63.4,67.9,65.6
	L67.9,65.6z"/>
<path d="M39.4,34.1c1.7,2.8,5.1,4.9,5.6,8.1c0.4,2.8,4.6,1.6,4.2-1.2c-0.7-3.9-4.1-6-6-9.2C41.6,29.6,37.8,31.7,39.4,34.1L39.4,34.1
	z"/>
<path d="M67.7,32c-2,3.1-5.4,5.2-6,9.2c-0.4,2.8,3.8,3.9,4.2,1.2c0.5-3.4,3.8-5.4,5.6-8.1C73,31.7,69.3,29.6,67.7,32L67.7,32z"/>
<path d="M46.5,50.5c-1.4,3.7,0.7,8,4.7,8.7c4.2,0.7,7.3-2.6,7.2-6.7c-1.4,0.1-2.9,0.4-4.2,0.5c1.6,3.8,3.7,6.8,8.1,5.1
	c3.5-1.3,4.3-5,3-8.4c-1-2.6-5.2-1.4-4.2,1.2c0.4,1,0.9,2.5-0.3,3.1c-1.6,0.8-2.1-1-2.5-2.2c-0.9-2.1-4.3-2.1-4.2,0.5
	c0,3.4-4.7,2.5-3.4-0.8C51.7,49,47.5,47.9,46.5,50.5L46.5,50.5z"/>
<path d="M36.5,29c8.7-14.2,29.1-16,39-2.1c1.6,2.2,5.4,0.1,3.8-2.2c-11.8-16.5-36-15-46.5,2.1C31.4,29.1,35,31.3,36.5,29L36.5,29z"
	/>
<path d="M32.8,26.7c-3.9,8-5.8,21-1.3,29c4.2,7.7,16,11.9,24.4,11.7c10.6-0.3,19.9-4.5,25.6-13.6c5.9-9.6,3-20.1-2.2-29.3
	c-1.4-2.4-5.1-0.3-3.8,2.2c4.3,7.6,7.3,16.1,2.6,24.3c-4.7,8.1-13,11.9-22.2,12.1c-6.7,0.1-16.5-3-20.2-8.9
	c-4.1-6.6-2.4-18.6,0.9-25.3C37.8,26.5,34,24.2,32.8,26.7L32.8,26.7z"/>
<path d="M12.9,66.6c2.4,2,4.9,4.1,6.6,6.8c1.2,1.8,2,3.9,1.6,6c-0.5,3.8-7.2,7.6-5.6-0.3c0.5-2.6,2-4.9,2-7.7c0-2.8-0.8-5.2-2-7.7
	c-1.2-2.5-4.9-0.3-3.8,2.2c2.1,4.6,1,8-0.7,12.3c-0.8,2-1.2,3.8-0.3,5.9c1.6,3.7,6.2,5,9.6,3.3c4.1-2,5.6-6.7,4.7-11
	c-1-5.5-5.2-9.4-9.3-12.9C13.8,61.8,10.8,64.8,12.9,66.6L12.9,66.6z"/>
<path d="M99.7,9.7c-4.1,3.4-8.3,7.5-9.3,12.9c-0.8,4.2,0.7,9.1,4.7,11c3.5,1.7,8,0.4,9.6-3.3c0.9-2,0.5-3.9-0.3-5.9
	c-1.7-4.3-2.8-7.9-0.7-12.3c1.2-2.5-2.6-4.7-3.8-2.2s-2,5-2,7.7c0,2.9,1.4,5,2,7.7c1.6,7.5-4.6,4.3-5.5,1.3
	c-0.8-2.4,0.3-5.1,1.6-7.1c1.6-2.8,4.2-4.9,6.6-6.8C104.9,11,101.8,8,99.7,9.7L99.7,9.7z"/>
<path d="M39.4,66.1c-1.3,2.4-3.5,4.3-5.8,5.5c-2.6,1.3-5.1,4.2-2.8,7.1c2.1,2.6,6.2,2.1,8.8,0.8c1.3-0.7,2.6-1.6,3.3-2.9
	C43.8,75,43,74,43,72.3c0-1.3-1.4-2.6-2.8-2.1c-2.2,0.9-4.3,2.9-6.3,4.3c-2.2,1.6-0.1,5.4,2.2,3.8c0.9-0.7,1.8-1.4,2.9-2.1
	c0.8-0.5,1.6-1.4,2.4-1.8c-0.9-0.7-1.8-1.4-2.8-2.1c0,0.5,0.5,1.7,0.4,2.2c-0.3,0.8-1.8,1.3-2.5,1.6c-0.5,0.1-1,0.3-1.6,0.3
	c-0.8-0.1-0.7,0-0.4-0.3c0.5-0.5,1.6-0.8,2.2-1.2c2.5-1.6,4.9-3.9,6.3-6.4C44.5,65.8,40.8,63.7,39.4,66.1L39.4,66.1z"/>
<path d="M71,62.3c1.4,2.5,3.8,5,6.3,6.4c0.7,0.4,1.3,0.7,2,1c0.5,0.3,0.8,0,0.3,0.4c-0.4,0.3-1,0.1-1.6,0c-0.8-0.1-2.4-0.7-2.8-1.4
	c-0.3-0.5,0.3-1.7,0.3-2.5c-0.9,0.7-1.8,1.4-2.8,2.1c0.8,0.4,1.7,1.3,2.4,1.8c0.9,0.7,1.8,1.4,2.9,2.1c2.2,1.7,4.5-2.1,2.2-3.8
	c-2-1.4-4.1-3.4-6.3-4.3c-1.3-0.5-2.8,0.8-2.8,2.1c0,1.6-0.8,2.6,0.1,4.3c0.7,1.3,2,2.2,3.3,2.9c2.6,1.3,6.8,1.8,8.8-0.8
	c2.2-2.9-0.3-5.8-2.8-7.1c-2.4-1.2-4.5-3.3-5.8-5.5C73.4,57.6,69.7,59.8,71,62.3L71,62.3z"/>
</svg>
